<mxfile host="app.diagrams.net" agent="Mozilla/5.0 (Windows NT 10.0; Win64; x64) AppleWebKit/537.36 (KHTML, like Gecko) Chrome/136.0.0.0 Safari/537.36" version="27.0.6">
  <diagram name="Страница — 1" id="Vp5nl0iZiVfFydLQLRMC">
    <mxGraphModel dx="2038" dy="563" grid="1" gridSize="10" guides="1" tooltips="1" connect="1" arrows="1" fold="1" page="1" pageScale="1" pageWidth="827" pageHeight="1169" math="0" shadow="0">
      <root>
        <mxCell id="0" />
        <mxCell id="1" parent="0" />
        <mxCell id="Ps-6_fYjzGiWJNzwA4xQ-4" value="" style="endArrow=none;html=1;rounded=0;" parent="1" edge="1">
          <mxGeometry width="50" height="50" relative="1" as="geometry">
            <mxPoint x="329.84000000000003" y="1022" as="sourcePoint" />
            <mxPoint x="329.84000000000003" y="983" as="targetPoint" />
            <Array as="points" />
          </mxGeometry>
        </mxCell>
        <mxCell id="Ps-6_fYjzGiWJNzwA4xQ-3" value="" style="endArrow=none;html=1;rounded=0;" parent="1" edge="1">
          <mxGeometry width="50" height="50" relative="1" as="geometry">
            <mxPoint x="329.84000000000003" y="943" as="sourcePoint" />
            <mxPoint x="329.84000000000003" y="904" as="targetPoint" />
            <Array as="points" />
          </mxGeometry>
        </mxCell>
        <mxCell id="muuk2Ey48-B4BVq4eK8P-16" value="pve-node-1" style="text;html=1;align=center;verticalAlign=middle;resizable=0;points=[];autosize=1;strokeColor=none;fillColor=none;" parent="1" vertex="1">
          <mxGeometry x="920" y="1144" width="80" height="30" as="geometry" />
        </mxCell>
        <mxCell id="muuk2Ey48-B4BVq4eK8P-17" value="pve-node-2" style="text;html=1;align=center;verticalAlign=middle;resizable=0;points=[];autosize=1;strokeColor=none;fillColor=none;" parent="1" vertex="1">
          <mxGeometry x="920" y="1229" width="80" height="30" as="geometry" />
        </mxCell>
        <mxCell id="muuk2Ey48-B4BVq4eK8P-18" value="pve-node-3" style="text;html=1;align=center;verticalAlign=middle;resizable=0;points=[];autosize=1;strokeColor=none;fillColor=none;" parent="1" vertex="1">
          <mxGeometry x="920" y="1311" width="80" height="30" as="geometry" />
        </mxCell>
        <mxCell id="muuk2Ey48-B4BVq4eK8P-19" value="" style="shape=mxgraph.cisco.servers.fileserver;sketch=0;html=1;pointerEvents=1;dashed=0;fillColor=#036897;strokeColor=#ffffff;strokeWidth=2;verticalLabelPosition=bottom;verticalAlign=top;align=center;outlineConnect=0;" parent="1" vertex="1">
          <mxGeometry x="797" y="1386.5" width="43" height="62" as="geometry" />
        </mxCell>
        <mxCell id="muuk2Ey48-B4BVq4eK8P-20" value="storage-node-2" style="text;html=1;align=center;verticalAlign=middle;resizable=0;points=[];autosize=1;strokeColor=none;fillColor=none;" parent="1" vertex="1">
          <mxGeometry x="768.5" y="1442.5" width="100" height="30" as="geometry" />
        </mxCell>
        <mxCell id="muuk2Ey48-B4BVq4eK8P-21" value="" style="shape=mxgraph.cisco.servers.fileserver;sketch=0;html=1;pointerEvents=1;dashed=0;fillColor=#036897;strokeColor=#ffffff;strokeWidth=2;verticalLabelPosition=bottom;verticalAlign=top;align=center;outlineConnect=0;" parent="1" vertex="1">
          <mxGeometry x="990.5" y="1380.5" width="43" height="62" as="geometry" />
        </mxCell>
        <mxCell id="muuk2Ey48-B4BVq4eK8P-22" value="storage-node-1" style="text;html=1;align=center;verticalAlign=middle;resizable=0;points=[];autosize=1;strokeColor=none;fillColor=none;" parent="1" vertex="1">
          <mxGeometry x="960" y="1437.5" width="100" height="30" as="geometry" />
        </mxCell>
        <mxCell id="muuk2Ey48-B4BVq4eK8P-23" value="" style="shape=mxgraph.cisco.computers_and_peripherals.terminal;sketch=0;html=1;pointerEvents=1;dashed=0;fillColor=#036897;strokeColor=#ffffff;strokeWidth=2;verticalLabelPosition=bottom;verticalAlign=top;align=center;outlineConnect=0;" parent="1" vertex="1">
          <mxGeometry x="310" y="1344" width="61" height="54" as="geometry" />
        </mxCell>
        <mxCell id="muuk2Ey48-B4BVq4eK8P-24" value="" style="shape=mxgraph.cisco.computers_and_peripherals.terminal;sketch=0;html=1;pointerEvents=1;dashed=0;fillColor=#036897;strokeColor=#ffffff;strokeWidth=2;verticalLabelPosition=bottom;verticalAlign=top;align=center;outlineConnect=0;" parent="1" vertex="1">
          <mxGeometry x="391" y="1344" width="61" height="54" as="geometry" />
        </mxCell>
        <mxCell id="muuk2Ey48-B4BVq4eK8P-25" value="" style="shape=mxgraph.cisco.computers_and_peripherals.terminal;sketch=0;html=1;pointerEvents=1;dashed=0;fillColor=#036897;strokeColor=#ffffff;strokeWidth=2;verticalLabelPosition=bottom;verticalAlign=top;align=center;outlineConnect=0;" parent="1" vertex="1">
          <mxGeometry x="472" y="1344" width="61" height="54" as="geometry" />
        </mxCell>
        <mxCell id="muuk2Ey48-B4BVq4eK8P-30" value="" style="shape=mxgraph.cisco.computers_and_peripherals.terminal;sketch=0;html=1;pointerEvents=1;dashed=0;fillColor=#036897;strokeColor=#ffffff;strokeWidth=2;verticalLabelPosition=bottom;verticalAlign=top;align=center;outlineConnect=0;" parent="1" vertex="1">
          <mxGeometry x="308.5" y="1260" width="61" height="54" as="geometry" />
        </mxCell>
        <mxCell id="muuk2Ey48-B4BVq4eK8P-31" value="" style="shape=mxgraph.cisco.computers_and_peripherals.terminal;sketch=0;html=1;pointerEvents=1;dashed=0;fillColor=#036897;strokeColor=#ffffff;strokeWidth=2;verticalLabelPosition=bottom;verticalAlign=top;align=center;outlineConnect=0;" parent="1" vertex="1">
          <mxGeometry x="389.5" y="1260" width="61" height="54" as="geometry" />
        </mxCell>
        <mxCell id="muuk2Ey48-B4BVq4eK8P-32" value="" style="shape=mxgraph.cisco.computers_and_peripherals.terminal;sketch=0;html=1;pointerEvents=1;dashed=0;fillColor=#036897;strokeColor=#ffffff;strokeWidth=2;verticalLabelPosition=bottom;verticalAlign=top;align=center;outlineConnect=0;" parent="1" vertex="1">
          <mxGeometry x="470.5" y="1260" width="61" height="54" as="geometry" />
        </mxCell>
        <mxCell id="muuk2Ey48-B4BVq4eK8P-33" value="client" style="text;html=1;align=center;verticalAlign=middle;resizable=0;points=[];autosize=1;strokeColor=none;fillColor=none;" parent="1" vertex="1">
          <mxGeometry x="478" y="1398" width="50" height="30" as="geometry" />
        </mxCell>
        <mxCell id="muuk2Ey48-B4BVq4eK8P-34" value="client" style="text;html=1;align=center;verticalAlign=middle;resizable=0;points=[];autosize=1;strokeColor=none;fillColor=none;" parent="1" vertex="1">
          <mxGeometry x="475.5" y="1314" width="50" height="30" as="geometry" />
        </mxCell>
        <mxCell id="muuk2Ey48-B4BVq4eK8P-35" value="client" style="text;html=1;align=center;verticalAlign=middle;resizable=0;points=[];autosize=1;strokeColor=none;fillColor=none;" parent="1" vertex="1">
          <mxGeometry x="315" y="1398" width="50" height="30" as="geometry" />
        </mxCell>
        <mxCell id="muuk2Ey48-B4BVq4eK8P-36" value="client" style="text;html=1;align=center;verticalAlign=middle;resizable=0;points=[];autosize=1;strokeColor=none;fillColor=none;" parent="1" vertex="1">
          <mxGeometry x="396.5" y="1398" width="50" height="30" as="geometry" />
        </mxCell>
        <mxCell id="muuk2Ey48-B4BVq4eK8P-37" value="client" style="text;html=1;align=center;verticalAlign=middle;resizable=0;points=[];autosize=1;strokeColor=none;fillColor=none;" parent="1" vertex="1">
          <mxGeometry x="313.5" y="1314" width="50" height="30" as="geometry" />
        </mxCell>
        <mxCell id="muuk2Ey48-B4BVq4eK8P-38" value="client" style="text;html=1;align=center;verticalAlign=middle;resizable=0;points=[];autosize=1;strokeColor=none;fillColor=none;" parent="1" vertex="1">
          <mxGeometry x="395.5" y="1314" width="50" height="30" as="geometry" />
        </mxCell>
        <mxCell id="muuk2Ey48-B4BVq4eK8P-43" value="" style="shape=mxgraph.cisco.computers_and_peripherals.terminal;sketch=0;html=1;pointerEvents=1;dashed=0;fillColor=#036897;strokeColor=#ffffff;strokeWidth=2;verticalLabelPosition=bottom;verticalAlign=top;align=center;outlineConnect=0;" parent="1" vertex="1">
          <mxGeometry x="310.5" y="1436" width="61" height="54" as="geometry" />
        </mxCell>
        <mxCell id="muuk2Ey48-B4BVq4eK8P-44" value="" style="shape=mxgraph.cisco.computers_and_peripherals.terminal;sketch=0;html=1;pointerEvents=1;dashed=0;fillColor=#036897;strokeColor=#ffffff;strokeWidth=2;verticalLabelPosition=bottom;verticalAlign=top;align=center;outlineConnect=0;" parent="1" vertex="1">
          <mxGeometry x="391.5" y="1436" width="61" height="54" as="geometry" />
        </mxCell>
        <mxCell id="muuk2Ey48-B4BVq4eK8P-45" value="" style="shape=mxgraph.cisco.computers_and_peripherals.terminal;sketch=0;html=1;pointerEvents=1;dashed=0;fillColor=#036897;strokeColor=#ffffff;strokeWidth=2;verticalLabelPosition=bottom;verticalAlign=top;align=center;outlineConnect=0;" parent="1" vertex="1">
          <mxGeometry x="472.5" y="1436" width="61" height="54" as="geometry" />
        </mxCell>
        <mxCell id="muuk2Ey48-B4BVq4eK8P-46" value="cod-cli-3" style="text;html=1;align=center;verticalAlign=middle;resizable=0;points=[];autosize=1;strokeColor=none;fillColor=none;" parent="1" vertex="1">
          <mxGeometry x="467.5" y="1490" width="70" height="30" as="geometry" />
        </mxCell>
        <mxCell id="muuk2Ey48-B4BVq4eK8P-47" value="cod-cli-1" style="text;html=1;align=center;verticalAlign=middle;resizable=0;points=[];autosize=1;strokeColor=none;fillColor=none;" parent="1" vertex="1">
          <mxGeometry x="305.5" y="1490" width="70" height="30" as="geometry" />
        </mxCell>
        <mxCell id="muuk2Ey48-B4BVq4eK8P-48" value="cod-cli-2" style="text;html=1;align=center;verticalAlign=middle;resizable=0;points=[];autosize=1;strokeColor=none;fillColor=none;" parent="1" vertex="1">
          <mxGeometry x="387.5" y="1490" width="70" height="30" as="geometry" />
        </mxCell>
        <mxCell id="muuk2Ey48-B4BVq4eK8P-49" value="" style="shape=mxgraph.cisco.computers_and_peripherals.terminal;sketch=0;html=1;pointerEvents=1;dashed=0;fillColor=#036897;strokeColor=#ffffff;strokeWidth=2;verticalLabelPosition=bottom;verticalAlign=top;align=center;outlineConnect=0;" parent="1" vertex="1">
          <mxGeometry x="192" y="1272.5" width="61" height="54" as="geometry" />
        </mxCell>
        <mxCell id="muuk2Ey48-B4BVq4eK8P-50" value="network-admin-node" style="text;html=1;align=center;verticalAlign=middle;resizable=0;points=[];autosize=1;strokeColor=none;fillColor=none;" parent="1" vertex="1">
          <mxGeometry x="163" y="1246.5" width="130" height="30" as="geometry" />
        </mxCell>
        <mxCell id="muuk2Ey48-B4BVq4eK8P-55" value="ald-node-1" style="text;html=1;align=center;verticalAlign=middle;resizable=0;points=[];autosize=1;strokeColor=none;fillColor=none;" parent="1" vertex="1">
          <mxGeometry x="923" y="967" width="80" height="30" as="geometry" />
        </mxCell>
        <mxCell id="muuk2Ey48-B4BVq4eK8P-56" value="ald-node-infra" style="text;html=1;align=center;verticalAlign=middle;resizable=0;points=[];autosize=1;strokeColor=none;fillColor=none;" parent="1" vertex="1">
          <mxGeometry x="910" y="1054" width="100" height="30" as="geometry" />
        </mxCell>
        <mxCell id="muuk2Ey48-B4BVq4eK8P-59" value="" style="shape=mxgraph.cisco.switches.workgroup_switch;sketch=0;html=1;pointerEvents=1;dashed=0;fillColor=#036897;strokeColor=#ffffff;strokeWidth=2;verticalLabelPosition=bottom;verticalAlign=top;align=center;outlineConnect=0;" parent="1" vertex="1">
          <mxGeometry x="276" y="1013" width="101" height="50" as="geometry" />
        </mxCell>
        <mxCell id="muuk2Ey48-B4BVq4eK8P-69" value="core-sw" style="text;html=1;align=center;verticalAlign=middle;resizable=0;points=[];autosize=1;strokeColor=none;fillColor=none;" parent="1" vertex="1">
          <mxGeometry x="278" y="1035" width="70" height="30" as="geometry" />
        </mxCell>
        <mxCell id="muuk2Ey48-B4BVq4eK8P-71" value="" style="shape=mxgraph.cisco.computers_and_peripherals.terminal;sketch=0;html=1;pointerEvents=1;dashed=0;fillColor=#036897;strokeColor=#ffffff;strokeWidth=2;verticalLabelPosition=bottom;verticalAlign=top;align=center;outlineConnect=0;" parent="1" vertex="1">
          <mxGeometry x="84" y="1272.5" width="61" height="54" as="geometry" />
        </mxCell>
        <mxCell id="muuk2Ey48-B4BVq4eK8P-72" value="hw-admin-node" style="text;html=1;align=center;verticalAlign=middle;resizable=0;points=[];autosize=1;strokeColor=none;fillColor=none;" parent="1" vertex="1">
          <mxGeometry x="64" y="1246" width="110" height="30" as="geometry" />
        </mxCell>
        <mxCell id="muuk2Ey48-B4BVq4eK8P-73" value="" style="shape=mxgraph.cisco.computers_and_peripherals.terminal;sketch=0;html=1;pointerEvents=1;dashed=0;fillColor=#036897;strokeColor=#ffffff;strokeWidth=2;verticalLabelPosition=bottom;verticalAlign=top;align=center;outlineConnect=0;" parent="1" vertex="1">
          <mxGeometry x="-27" y="1272.5" width="61" height="54" as="geometry" />
        </mxCell>
        <mxCell id="muuk2Ey48-B4BVq4eK8P-74" value="main-admin-node" style="text;html=1;align=center;verticalAlign=middle;resizable=0;points=[];autosize=1;strokeColor=none;fillColor=none;" parent="1" vertex="1">
          <mxGeometry x="-52" y="1247.5" width="120" height="30" as="geometry" />
        </mxCell>
        <mxCell id="hAfyrsxasU9BH3moIb1E-4" value="" style="endArrow=none;html=1;rounded=0;fillColor=#d80073;strokeColor=#A50040;" parent="1" edge="1">
          <mxGeometry width="50" height="50" relative="1" as="geometry">
            <mxPoint x="60" y="1376" as="sourcePoint" />
            <mxPoint x="-30" y="1376" as="targetPoint" />
          </mxGeometry>
        </mxCell>
        <mxCell id="hAfyrsxasU9BH3moIb1E-7" value="vlan 102 - сегмент управления" style="text;html=1;align=center;verticalAlign=middle;resizable=0;points=[];autosize=1;strokeColor=none;fillColor=none;" parent="1" vertex="1">
          <mxGeometry x="58.5" y="1360" width="190" height="30" as="geometry" />
        </mxCell>
        <mxCell id="hAfyrsxasU9BH3moIb1E-22" value="" style="endArrow=none;html=1;rounded=0;fillColor=#6d8764;strokeColor=#3A5431;strokeWidth=2;" parent="1" edge="1">
          <mxGeometry width="50" height="50" relative="1" as="geometry">
            <mxPoint x="60" y="1394" as="sourcePoint" />
            <mxPoint x="-30" y="1394" as="targetPoint" />
          </mxGeometry>
        </mxCell>
        <mxCell id="hAfyrsxasU9BH3moIb1E-23" value="vlan 101 - серверный сегмент" style="text;html=1;align=center;verticalAlign=middle;resizable=0;points=[];autosize=1;strokeColor=none;fillColor=none;" parent="1" vertex="1">
          <mxGeometry x="56" y="1378" width="190" height="30" as="geometry" />
        </mxCell>
        <mxCell id="hAfyrsxasU9BH3moIb1E-24" value="" style="endArrow=none;html=1;rounded=0;fillColor=#60a917;strokeColor=#2D7600;" parent="1" edge="1">
          <mxGeometry width="50" height="50" relative="1" as="geometry">
            <mxPoint x="60.5" y="1414" as="sourcePoint" />
            <mxPoint x="-29.5" y="1414" as="targetPoint" />
          </mxGeometry>
        </mxCell>
        <mxCell id="hAfyrsxasU9BH3moIb1E-25" value="" style="endArrow=none;html=1;rounded=0;fillColor=#0050ef;strokeColor=#001DBC;" parent="1" edge="1">
          <mxGeometry width="50" height="50" relative="1" as="geometry">
            <mxPoint x="60" y="1434" as="sourcePoint" />
            <mxPoint x="-30" y="1434" as="targetPoint" />
          </mxGeometry>
        </mxCell>
        <mxCell id="hAfyrsxasU9BH3moIb1E-27" value="vlan 201 - общий клиентский сегмент" style="text;html=1;align=center;verticalAlign=middle;resizable=0;points=[];autosize=1;strokeColor=none;fillColor=none;" parent="1" vertex="1">
          <mxGeometry x="57" y="1398" width="230" height="30" as="geometry" />
        </mxCell>
        <mxCell id="hAfyrsxasU9BH3moIb1E-28" value="vlan 100 - сегмент администраторов" style="text;html=1;align=center;verticalAlign=middle;resizable=0;points=[];autosize=1;strokeColor=none;fillColor=none;" parent="1" vertex="1">
          <mxGeometry x="54" y="1418" width="230" height="30" as="geometry" />
        </mxCell>
        <mxCell id="hAfyrsxasU9BH3moIb1E-30" value="" style="endArrow=none;html=1;rounded=0;fillColor=#60a917;strokeColor=#2D7600;entryX=0.5;entryY=0;entryDx=0;entryDy=0;entryPerimeter=0;" parent="1" target="muuk2Ey48-B4BVq4eK8P-23" edge="1">
          <mxGeometry width="50" height="50" relative="1" as="geometry">
            <mxPoint x="423.5" y="1171" as="sourcePoint" />
            <mxPoint x="563.5" y="1234" as="targetPoint" />
          </mxGeometry>
        </mxCell>
        <mxCell id="hAfyrsxasU9BH3moIb1E-31" value="" style="endArrow=none;html=1;rounded=0;fillColor=#60a917;strokeColor=#2D7600;entryX=0.5;entryY=0;entryDx=0;entryDy=0;entryPerimeter=0;" parent="1" target="muuk2Ey48-B4BVq4eK8P-24" edge="1">
          <mxGeometry width="50" height="50" relative="1" as="geometry">
            <mxPoint x="423.5" y="1171" as="sourcePoint" />
            <mxPoint x="621.5" y="1270" as="targetPoint" />
          </mxGeometry>
        </mxCell>
        <mxCell id="hAfyrsxasU9BH3moIb1E-32" value="" style="endArrow=none;html=1;rounded=0;fillColor=#60a917;strokeColor=#2D7600;entryX=0.5;entryY=0;entryDx=0;entryDy=0;entryPerimeter=0;" parent="1" target="muuk2Ey48-B4BVq4eK8P-25" edge="1">
          <mxGeometry width="50" height="50" relative="1" as="geometry">
            <mxPoint x="423.5" y="1171" as="sourcePoint" />
            <mxPoint x="702.5" y="1270" as="targetPoint" />
          </mxGeometry>
        </mxCell>
        <mxCell id="hAfyrsxasU9BH3moIb1E-43" value="" style="endArrow=none;html=1;rounded=0;fillColor=#60a917;strokeColor=#2D7600;exitX=0.5;exitY=0.98;exitDx=0;exitDy=0;exitPerimeter=0;entryX=0.5;entryY=0;entryDx=0;entryDy=0;entryPerimeter=0;" parent="1" target="muuk2Ey48-B4BVq4eK8P-30" edge="1">
          <mxGeometry width="50" height="50" relative="1" as="geometry">
            <mxPoint x="421.5" y="1172" as="sourcePoint" />
            <mxPoint x="282.5" y="1300" as="targetPoint" />
          </mxGeometry>
        </mxCell>
        <mxCell id="hAfyrsxasU9BH3moIb1E-44" value="" style="endArrow=none;html=1;rounded=0;fillColor=#60a917;strokeColor=#2D7600;exitX=0.5;exitY=0.98;exitDx=0;exitDy=0;exitPerimeter=0;entryX=0.5;entryY=0;entryDx=0;entryDy=0;entryPerimeter=0;" parent="1" target="muuk2Ey48-B4BVq4eK8P-31" edge="1">
          <mxGeometry width="50" height="50" relative="1" as="geometry">
            <mxPoint x="421.5" y="1172" as="sourcePoint" />
            <mxPoint x="348.5" y="1310" as="targetPoint" />
          </mxGeometry>
        </mxCell>
        <mxCell id="hAfyrsxasU9BH3moIb1E-45" value="" style="endArrow=none;html=1;rounded=0;fillColor=#60a917;strokeColor=#2D7600;exitX=0.5;exitY=0.98;exitDx=0;exitDy=0;exitPerimeter=0;entryX=0.5;entryY=0;entryDx=0;entryDy=0;entryPerimeter=0;" parent="1" target="muuk2Ey48-B4BVq4eK8P-32" edge="1">
          <mxGeometry width="50" height="50" relative="1" as="geometry">
            <mxPoint x="421.5" y="1172" as="sourcePoint" />
            <mxPoint x="463.5" y="1290" as="targetPoint" />
          </mxGeometry>
        </mxCell>
        <mxCell id="hAfyrsxasU9BH3moIb1E-46" value="" style="endArrow=none;html=1;rounded=0;fillColor=#0050ef;strokeColor=#001DBC;exitX=0;exitY=0.5;exitDx=0;exitDy=0;exitPerimeter=0;entryX=0.5;entryY=0;entryDx=0;entryDy=0;entryPerimeter=0;" parent="1" target="muuk2Ey48-B4BVq4eK8P-49" edge="1">
          <mxGeometry width="50" height="50" relative="1" as="geometry">
            <mxPoint x="120.5" y="1162.5" as="sourcePoint" />
            <mxPoint x="-50.5" y="1096.5" as="targetPoint" />
          </mxGeometry>
        </mxCell>
        <mxCell id="hAfyrsxasU9BH3moIb1E-47" value="" style="endArrow=none;html=1;rounded=0;fillColor=#0050ef;strokeColor=#001DBC;exitX=0;exitY=0.5;exitDx=0;exitDy=0;exitPerimeter=0;entryX=0.5;entryY=0;entryDx=0;entryDy=0;entryPerimeter=0;" parent="1" target="muuk2Ey48-B4BVq4eK8P-71" edge="1">
          <mxGeometry width="50" height="50" relative="1" as="geometry">
            <mxPoint x="120.5" y="1162.5" as="sourcePoint" />
            <mxPoint x="-120.5" y="1074.5" as="targetPoint" />
          </mxGeometry>
        </mxCell>
        <mxCell id="hAfyrsxasU9BH3moIb1E-48" value="" style="endArrow=none;html=1;rounded=0;fillColor=#0050ef;strokeColor=#001DBC;exitX=0;exitY=0.5;exitDx=0;exitDy=0;exitPerimeter=0;entryX=0.5;entryY=0;entryDx=0;entryDy=0;entryPerimeter=0;" parent="1" target="muuk2Ey48-B4BVq4eK8P-73" edge="1">
          <mxGeometry width="50" height="50" relative="1" as="geometry">
            <mxPoint x="120.5" y="1162.5" as="sourcePoint" />
            <mxPoint x="-100.5" y="1104.5" as="targetPoint" />
          </mxGeometry>
        </mxCell>
        <mxCell id="hAfyrsxasU9BH3moIb1E-87" value="" style="shape=mxgraph.cisco.routers.router;sketch=0;html=1;pointerEvents=1;dashed=0;fillColor=#036897;strokeColor=#ffffff;strokeWidth=2;verticalLabelPosition=bottom;verticalAlign=top;align=center;outlineConnect=0;" parent="1" vertex="1">
          <mxGeometry x="13" y="633" width="78" height="53" as="geometry" />
        </mxCell>
        <mxCell id="hAfyrsxasU9BH3moIb1E-88" value="other-1-router-1" style="text;html=1;align=center;verticalAlign=middle;resizable=0;points=[];autosize=1;strokeColor=none;fillColor=none;" parent="1" vertex="1">
          <mxGeometry x="-3" y="603" width="110" height="30" as="geometry" />
        </mxCell>
        <mxCell id="hAfyrsxasU9BH3moIb1E-90" value="" style="shape=mxgraph.cisco.routers.router;sketch=0;html=1;pointerEvents=1;dashed=0;fillColor=#036897;strokeColor=#ffffff;strokeWidth=2;verticalLabelPosition=bottom;verticalAlign=top;align=center;outlineConnect=0;" parent="1" vertex="1">
          <mxGeometry x="17" y="733" width="78" height="53" as="geometry" />
        </mxCell>
        <mxCell id="hAfyrsxasU9BH3moIb1E-91" value="main-2-router-1" style="text;html=1;align=center;verticalAlign=middle;resizable=0;points=[];autosize=1;strokeColor=none;fillColor=none;" parent="1" vertex="1">
          <mxGeometry x="1" y="703" width="110" height="30" as="geometry" />
        </mxCell>
        <mxCell id="hAfyrsxasU9BH3moIb1E-92" value="other-1-lan" style="ellipse;shape=cloud;whiteSpace=wrap;html=1;" parent="1" vertex="1">
          <mxGeometry x="-144" y="611.5" width="120" height="80" as="geometry" />
        </mxCell>
        <mxCell id="hAfyrsxasU9BH3moIb1E-93" value="main-2-lan" style="ellipse;shape=cloud;whiteSpace=wrap;html=1;" parent="1" vertex="1">
          <mxGeometry x="-144" y="711.5" width="120" height="80" as="geometry" />
        </mxCell>
        <mxCell id="hAfyrsxasU9BH3moIb1E-102" value="" style="endArrow=none;html=1;rounded=0;entryX=0.13;entryY=0.77;entryDx=0;entryDy=0;entryPerimeter=0;exitX=1;exitY=0.5;exitDx=0;exitDy=0;exitPerimeter=0;" parent="1" source="hAfyrsxasU9BH3moIb1E-90" target="hAfyrsxasU9BH3moIb1E-89" edge="1">
          <mxGeometry width="50" height="50" relative="1" as="geometry">
            <mxPoint x="133.5" y="829" as="sourcePoint" />
            <mxPoint x="175.5" y="686" as="targetPoint" />
            <Array as="points">
              <mxPoint x="150" y="723" />
            </Array>
          </mxGeometry>
        </mxCell>
        <mxCell id="hAfyrsxasU9BH3moIb1E-103" value="" style="endArrow=none;html=1;rounded=0;entryX=0.165;entryY=0.28;entryDx=0;entryDy=0;entryPerimeter=0;exitX=1;exitY=0.5;exitDx=0;exitDy=0;exitPerimeter=0;" parent="1" source="hAfyrsxasU9BH3moIb1E-87" target="hAfyrsxasU9BH3moIb1E-89" edge="1">
          <mxGeometry width="50" height="50" relative="1" as="geometry">
            <mxPoint x="130" y="653" as="sourcePoint" />
            <mxPoint x="317" y="615" as="targetPoint" />
            <Array as="points">
              <mxPoint x="150" y="683" />
            </Array>
          </mxGeometry>
        </mxCell>
        <mxCell id="hAfyrsxasU9BH3moIb1E-105" value="" style="shape=mxgraph.cisco.computers_and_peripherals.terminal;sketch=0;html=1;pointerEvents=1;dashed=0;fillColor=#036897;strokeColor=#ffffff;strokeWidth=2;verticalLabelPosition=bottom;verticalAlign=top;align=center;outlineConnect=0;" parent="1" vertex="1">
          <mxGeometry x="215.5" y="490" width="61" height="54" as="geometry" />
        </mxCell>
        <mxCell id="hAfyrsxasU9BH3moIb1E-107" value="outter-client-1" style="text;html=1;align=center;verticalAlign=middle;resizable=0;points=[];autosize=1;strokeColor=none;fillColor=none;" parent="1" vertex="1">
          <mxGeometry x="205.5" y="460" width="100" height="30" as="geometry" />
        </mxCell>
        <mxCell id="hAfyrsxasU9BH3moIb1E-108" value="" style="shape=mxgraph.cisco.computers_and_peripherals.terminal;sketch=0;html=1;pointerEvents=1;dashed=0;fillColor=#036897;strokeColor=#ffffff;strokeWidth=2;verticalLabelPosition=bottom;verticalAlign=top;align=center;outlineConnect=0;" parent="1" vertex="1">
          <mxGeometry x="299.5" y="490" width="61" height="54" as="geometry" />
        </mxCell>
        <mxCell id="hAfyrsxasU9BH3moIb1E-109" value="outter-client-2" style="text;html=1;align=center;verticalAlign=middle;resizable=0;points=[];autosize=1;strokeColor=none;fillColor=none;" parent="1" vertex="1">
          <mxGeometry x="289" y="460" width="100" height="30" as="geometry" />
        </mxCell>
        <mxCell id="hAfyrsxasU9BH3moIb1E-110" value="" style="shape=mxgraph.cisco.computers_and_peripherals.terminal;sketch=0;html=1;pointerEvents=1;dashed=0;fillColor=#036897;strokeColor=#ffffff;strokeWidth=2;verticalLabelPosition=bottom;verticalAlign=top;align=center;outlineConnect=0;" parent="1" vertex="1">
          <mxGeometry x="388.5" y="490" width="61" height="54" as="geometry" />
        </mxCell>
        <mxCell id="hAfyrsxasU9BH3moIb1E-111" value="outter-client-3" style="text;html=1;align=center;verticalAlign=middle;resizable=0;points=[];autosize=1;strokeColor=none;fillColor=none;" parent="1" vertex="1">
          <mxGeometry x="380.5" y="460" width="100" height="30" as="geometry" />
        </mxCell>
        <mxCell id="hAfyrsxasU9BH3moIb1E-112" value="" style="endArrow=none;html=1;rounded=0;entryX=0.533;entryY=0.413;entryDx=0;entryDy=0;entryPerimeter=0;exitX=0.5;exitY=1;exitDx=0;exitDy=0;exitPerimeter=0;" parent="1" source="hAfyrsxasU9BH3moIb1E-105" target="hAfyrsxasU9BH3moIb1E-89" edge="1">
          <mxGeometry width="50" height="50" relative="1" as="geometry">
            <mxPoint x="240" y="573" as="sourcePoint" />
            <mxPoint x="435" y="595" as="targetPoint" />
            <Array as="points">
              <mxPoint x="300" y="593" />
            </Array>
          </mxGeometry>
        </mxCell>
        <mxCell id="hAfyrsxasU9BH3moIb1E-113" value="" style="endArrow=none;html=1;rounded=0;exitX=0.5;exitY=1;exitDx=0;exitDy=0;exitPerimeter=0;" parent="1" source="hAfyrsxasU9BH3moIb1E-108" edge="1">
          <mxGeometry width="50" height="50" relative="1" as="geometry">
            <mxPoint x="340" y="573" as="sourcePoint" />
            <mxPoint x="330" y="693" as="targetPoint" />
            <Array as="points">
              <mxPoint x="330" y="613" />
            </Array>
          </mxGeometry>
        </mxCell>
        <mxCell id="hAfyrsxasU9BH3moIb1E-114" value="" style="endArrow=none;html=1;rounded=0;exitX=0.5;exitY=1;exitDx=0;exitDy=0;exitPerimeter=0;" parent="1" source="hAfyrsxasU9BH3moIb1E-110" edge="1">
          <mxGeometry width="50" height="50" relative="1" as="geometry">
            <mxPoint x="370" y="583" as="sourcePoint" />
            <mxPoint x="330" y="693" as="targetPoint" />
            <Array as="points">
              <mxPoint x="360" y="593" />
            </Array>
          </mxGeometry>
        </mxCell>
        <mxCell id="hAfyrsxasU9BH3moIb1E-89" value="&lt;font style=&quot;font-size: 7px;&quot;&gt;OpenVPN&lt;/font&gt;" style="ellipse;shape=cloud;whiteSpace=wrap;html=1;" parent="1" vertex="1">
          <mxGeometry x="260" y="660" width="120" height="80" as="geometry" />
        </mxCell>
        <mxCell id="muuk2Ey48-B4BVq4eK8P-12" value="" style="shape=mxgraph.cisco.servers.fileserver;sketch=0;html=1;pointerEvents=1;dashed=0;fillColor=#036897;strokeColor=#ffffff;strokeWidth=2;verticalLabelPosition=bottom;verticalAlign=top;align=center;outlineConnect=0;" parent="1" vertex="1">
          <mxGeometry x="938.5" y="1255" width="43" height="62" as="geometry" />
        </mxCell>
        <mxCell id="muuk2Ey48-B4BVq4eK8P-14" value="" style="shape=mxgraph.cisco.servers.fileserver;sketch=0;html=1;pointerEvents=1;dashed=0;fillColor=#036897;strokeColor=#ffffff;strokeWidth=2;verticalLabelPosition=bottom;verticalAlign=top;align=center;outlineConnect=0;" parent="1" vertex="1">
          <mxGeometry x="938.5" y="1173" width="43" height="62" as="geometry" />
        </mxCell>
        <mxCell id="muuk2Ey48-B4BVq4eK8P-52" value="" style="shape=mxgraph.cisco.servers.fileserver;sketch=0;html=1;pointerEvents=1;dashed=0;fillColor=#036897;strokeColor=#ffffff;strokeWidth=2;verticalLabelPosition=bottom;verticalAlign=top;align=center;outlineConnect=0;" parent="1" vertex="1">
          <mxGeometry x="938.5" y="997.5" width="43" height="62" as="geometry" />
        </mxCell>
        <mxCell id="muuk2Ey48-B4BVq4eK8P-53" value="" style="shape=mxgraph.cisco.servers.fileserver;sketch=0;html=1;pointerEvents=1;dashed=0;fillColor=#036897;strokeColor=#ffffff;strokeWidth=2;verticalLabelPosition=bottom;verticalAlign=top;align=center;outlineConnect=0;" parent="1" vertex="1">
          <mxGeometry x="941.5" y="910.5" width="43" height="62" as="geometry" />
        </mxCell>
        <mxCell id="9QaCa96sRWtHc6JSc8Kn-11" value="ideco-fw" style="text;html=1;align=center;verticalAlign=middle;resizable=0;points=[];autosize=1;strokeColor=none;fillColor=none;" parent="1" vertex="1">
          <mxGeometry x="293" y="837" width="70" height="30" as="geometry" />
        </mxCell>
        <mxCell id="9QaCa96sRWtHc6JSc8Kn-14" value="" style="endArrow=none;html=1;rounded=0;entryX=0.55;entryY=0.95;entryDx=0;entryDy=0;entryPerimeter=0;exitX=0.5;exitY=0;exitDx=0;exitDy=0;exitPerimeter=0;" parent="1" source="9QaCa96sRWtHc6JSc8Kn-10" target="hAfyrsxasU9BH3moIb1E-89" edge="1">
          <mxGeometry width="50" height="50" relative="1" as="geometry">
            <mxPoint x="299.5" y="921" as="sourcePoint" />
            <mxPoint x="255.6400000000001" y="771.2" as="targetPoint" />
            <Array as="points" />
          </mxGeometry>
        </mxCell>
        <mxCell id="9QaCa96sRWtHc6JSc8Kn-10" value="" style="fontColor=#0066CC;verticalAlign=top;verticalLabelPosition=bottom;labelPosition=center;align=center;html=1;outlineConnect=0;fillColor=#CCCCCC;strokeColor=#6881B3;gradientColor=none;gradientDirection=north;strokeWidth=2;shape=mxgraph.networks.firewall;" parent="1" vertex="1">
          <mxGeometry x="302" y="860" width="50" height="50" as="geometry" />
        </mxCell>
        <mxCell id="Ps-6_fYjzGiWJNzwA4xQ-1" value="" style="shape=mxgraph.cisco.storage.cloud;sketch=0;html=1;pointerEvents=1;dashed=0;fillColor=#036897;strokeColor=#ffffff;strokeWidth=2;verticalLabelPosition=bottom;verticalAlign=top;align=center;outlineConnect=0;" parent="1" vertex="1">
          <mxGeometry x="276.5" y="930" width="104" height="59" as="geometry" />
        </mxCell>
        <mxCell id="Ps-6_fYjzGiWJNzwA4xQ-5" value="&lt;font style=&quot;font-size: 9px;&quot;&gt;172.16.0.0/30&lt;/font&gt;" style="text;html=1;align=center;verticalAlign=middle;resizable=0;points=[];autosize=1;strokeColor=none;fillColor=none;" parent="1" vertex="1">
          <mxGeometry x="290" y="944.5" width="80" height="30" as="geometry" />
        </mxCell>
        <mxCell id="Ps-6_fYjzGiWJNzwA4xQ-6" value="&lt;font size=&quot;1&quot;&gt;.1&lt;/font&gt;" style="text;html=1;align=center;verticalAlign=middle;resizable=0;points=[];autosize=1;strokeColor=none;fillColor=none;" parent="1" vertex="1">
          <mxGeometry x="325" y="902" width="30" height="30" as="geometry" />
        </mxCell>
        <mxCell id="Ps-6_fYjzGiWJNzwA4xQ-7" value="&lt;font style=&quot;font-size: 9px;&quot;&gt;.2&lt;/font&gt;" style="text;html=1;align=center;verticalAlign=middle;resizable=0;points=[];autosize=1;strokeColor=none;fillColor=none;" parent="1" vertex="1">
          <mxGeometry x="324" y="991" width="30" height="30" as="geometry" />
        </mxCell>
        <mxCell id="Ps-6_fYjzGiWJNzwA4xQ-29" value="" style="endArrow=none;html=1;rounded=0;" parent="1" source="Ps-6_fYjzGiWJNzwA4xQ-31" edge="1">
          <mxGeometry width="50" height="50" relative="1" as="geometry">
            <mxPoint x="326.16" y="1101" as="sourcePoint" />
            <mxPoint x="326.16" y="1062" as="targetPoint" />
            <Array as="points" />
          </mxGeometry>
        </mxCell>
        <mxCell id="Ps-6_fYjzGiWJNzwA4xQ-30" value="" style="shape=mxgraph.cisco.storage.cloud;sketch=0;html=1;pointerEvents=1;dashed=0;fillColor=#036897;strokeColor=#ffffff;strokeWidth=2;verticalLabelPosition=bottom;verticalAlign=top;align=center;outlineConnect=0;" parent="1" vertex="1">
          <mxGeometry x="366.5" y="1118" width="104" height="59" as="geometry" />
        </mxCell>
        <mxCell id="Ps-6_fYjzGiWJNzwA4xQ-31" value="&lt;font style=&quot;font-size: 9px;&quot;&gt;10.0.0.0/23&lt;/font&gt;&lt;div&gt;&lt;font size=&quot;1&quot;&gt;VLAN 201&lt;/font&gt;&lt;/div&gt;" style="text;html=1;align=center;verticalAlign=middle;resizable=0;points=[];autosize=1;strokeColor=none;fillColor=none;" parent="1" vertex="1">
          <mxGeometry x="385" y="1127.5" width="70" height="40" as="geometry" />
        </mxCell>
        <mxCell id="Ps-6_fYjzGiWJNzwA4xQ-32" value="" style="shape=mxgraph.cisco.storage.cloud;sketch=0;html=1;pointerEvents=1;dashed=0;fillColor=#036897;strokeColor=#ffffff;strokeWidth=2;verticalLabelPosition=bottom;verticalAlign=top;align=center;outlineConnect=0;" parent="1" vertex="1">
          <mxGeometry x="64" y="1122.5" width="104" height="59" as="geometry" />
        </mxCell>
        <mxCell id="Ps-6_fYjzGiWJNzwA4xQ-33" value="&lt;font style=&quot;font-size: 8px;&quot;&gt;192.168.100.0/24&lt;/font&gt;&lt;br&gt;&lt;div&gt;&lt;font style=&quot;font-size: 9px;&quot;&gt;VLAN 100&lt;/font&gt;&lt;/div&gt;" style="text;html=1;align=center;verticalAlign=middle;resizable=0;points=[];autosize=1;strokeColor=none;fillColor=none;" parent="1" vertex="1">
          <mxGeometry x="72.5" y="1132" width="90" height="40" as="geometry" />
        </mxCell>
        <mxCell id="Ps-6_fYjzGiWJNzwA4xQ-36" value="" style="endArrow=none;html=1;rounded=0;exitX=0.98;exitY=0.5;exitDx=0;exitDy=0;exitPerimeter=0;" parent="1" source="Ps-6_fYjzGiWJNzwA4xQ-32" edge="1">
          <mxGeometry width="50" height="50" relative="1" as="geometry">
            <mxPoint x="162" y="1153.9499999999998" as="sourcePoint" />
            <mxPoint x="326" y="1062" as="targetPoint" />
            <Array as="points" />
          </mxGeometry>
        </mxCell>
        <mxCell id="Ps-6_fYjzGiWJNzwA4xQ-42" value="" style="shape=mxgraph.cisco.storage.cloud;sketch=0;html=1;pointerEvents=1;dashed=0;fillColor=#036897;strokeColor=#ffffff;strokeWidth=2;verticalLabelPosition=bottom;verticalAlign=top;align=center;outlineConnect=0;" parent="1" vertex="1">
          <mxGeometry x="629.75" y="1059" width="104" height="59" as="geometry" />
        </mxCell>
        <mxCell id="Ps-6_fYjzGiWJNzwA4xQ-43" value="&lt;font style=&quot;font-size: 8px;&quot;&gt;192.168.101.0/24&lt;br&gt;&lt;/font&gt;&lt;div&gt;&lt;font style=&quot;font-size: 9px;&quot;&gt;VLAN 102&lt;/font&gt;&lt;/div&gt;" style="text;html=1;align=center;verticalAlign=middle;resizable=0;points=[];autosize=1;strokeColor=none;fillColor=none;" parent="1" vertex="1">
          <mxGeometry x="638.25" y="1068.5" width="90" height="40" as="geometry" />
        </mxCell>
        <mxCell id="Ps-6_fYjzGiWJNzwA4xQ-44" value="" style="endArrow=none;html=1;rounded=0;exitX=0.98;exitY=0.5;exitDx=0;exitDy=0;exitPerimeter=0;entryX=0.2;entryY=0.87;entryDx=0;entryDy=0;entryPerimeter=0;" parent="1" source="muuk2Ey48-B4BVq4eK8P-59" target="Ps-6_fYjzGiWJNzwA4xQ-42" edge="1">
          <mxGeometry width="50" height="50" relative="1" as="geometry">
            <mxPoint x="299" y="1062" as="sourcePoint" />
            <mxPoint x="579" y="972" as="targetPoint" />
            <Array as="points" />
          </mxGeometry>
        </mxCell>
        <mxCell id="Ps-6_fYjzGiWJNzwA4xQ-45" value="" style="shape=mxgraph.cisco.switches.workgroup_switch;sketch=0;html=1;pointerEvents=1;dashed=0;fillColor=#036897;strokeColor=#ffffff;strokeWidth=2;verticalLabelPosition=bottom;verticalAlign=top;align=center;outlineConnect=0;" parent="1" vertex="1">
          <mxGeometry x="801" y="902" width="101" height="50" as="geometry" />
        </mxCell>
        <mxCell id="Ps-6_fYjzGiWJNzwA4xQ-46" value="cli-sw-1" style="text;html=1;align=center;verticalAlign=middle;resizable=0;points=[];autosize=1;strokeColor=none;fillColor=none;" parent="1" vertex="1">
          <mxGeometry x="806" y="924" width="60" height="30" as="geometry" />
        </mxCell>
        <mxCell id="Ps-6_fYjzGiWJNzwA4xQ-47" value="" style="shape=mxgraph.cisco.switches.workgroup_switch;sketch=0;html=1;pointerEvents=1;dashed=0;fillColor=#036897;strokeColor=#ffffff;strokeWidth=2;verticalLabelPosition=bottom;verticalAlign=top;align=center;outlineConnect=0;" parent="1" vertex="1">
          <mxGeometry x="480.5" y="902" width="101" height="50" as="geometry" />
        </mxCell>
        <mxCell id="Ps-6_fYjzGiWJNzwA4xQ-48" value="cod-sw-1" style="text;html=1;align=center;verticalAlign=middle;resizable=0;points=[];autosize=1;strokeColor=none;fillColor=none;" parent="1" vertex="1">
          <mxGeometry x="484.5" y="924" width="70" height="30" as="geometry" />
        </mxCell>
        <mxCell id="Ps-6_fYjzGiWJNzwA4xQ-49" value="" style="shape=mxgraph.cisco.switches.workgroup_switch;sketch=0;html=1;pointerEvents=1;dashed=0;fillColor=#036897;strokeColor=#ffffff;strokeWidth=2;verticalLabelPosition=bottom;verticalAlign=top;align=center;outlineConnect=0;" parent="1" vertex="1">
          <mxGeometry x="696" y="902" width="101" height="50" as="geometry" />
        </mxCell>
        <mxCell id="Ps-6_fYjzGiWJNzwA4xQ-50" value="cli-sw-2" style="text;html=1;align=center;verticalAlign=middle;resizable=0;points=[];autosize=1;strokeColor=none;fillColor=none;" parent="1" vertex="1">
          <mxGeometry x="701" y="924" width="60" height="30" as="geometry" />
        </mxCell>
        <mxCell id="Ps-6_fYjzGiWJNzwA4xQ-51" value="" style="shape=mxgraph.cisco.switches.workgroup_switch;sketch=0;html=1;pointerEvents=1;dashed=0;fillColor=#036897;strokeColor=#ffffff;strokeWidth=2;verticalLabelPosition=bottom;verticalAlign=top;align=center;outlineConnect=0;" parent="1" vertex="1">
          <mxGeometry x="585.5" y="902" width="101" height="50" as="geometry" />
        </mxCell>
        <mxCell id="Ps-6_fYjzGiWJNzwA4xQ-52" value="srv-sw" style="text;html=1;align=center;verticalAlign=middle;resizable=0;points=[];autosize=1;strokeColor=none;fillColor=none;" parent="1" vertex="1">
          <mxGeometry x="592.5" y="924" width="60" height="30" as="geometry" />
        </mxCell>
        <mxCell id="Ps-6_fYjzGiWJNzwA4xQ-53" value="" style="endArrow=none;html=1;rounded=0;exitX=0.5;exitY=0.05;exitDx=0;exitDy=0;exitPerimeter=0;entryX=0.5;entryY=0.98;entryDx=0;entryDy=0;entryPerimeter=0;fillColor=#6d8764;strokeColor=light-dark(#3A5431,#FFA9E0);" parent="1" source="Ps-6_fYjzGiWJNzwA4xQ-42" target="Ps-6_fYjzGiWJNzwA4xQ-45" edge="1">
          <mxGeometry width="50" height="50" relative="1" as="geometry">
            <mxPoint x="714.25" y="1173" as="sourcePoint" />
            <mxPoint x="889.25" y="1105" as="targetPoint" />
            <Array as="points" />
          </mxGeometry>
        </mxCell>
        <mxCell id="Ps-6_fYjzGiWJNzwA4xQ-54" value="" style="endArrow=none;html=1;rounded=0;exitX=0.5;exitY=0.05;exitDx=0;exitDy=0;exitPerimeter=0;entryX=0.5;entryY=0.98;entryDx=0;entryDy=0;entryPerimeter=0;fillColor=#6d8764;strokeColor=light-dark(#3A5431,#FFA9E0);" parent="1" source="Ps-6_fYjzGiWJNzwA4xQ-42" target="Ps-6_fYjzGiWJNzwA4xQ-47" edge="1">
          <mxGeometry width="50" height="50" relative="1" as="geometry">
            <mxPoint x="752.25" y="1134" as="sourcePoint" />
            <mxPoint x="827.25" y="1099" as="targetPoint" />
            <Array as="points" />
          </mxGeometry>
        </mxCell>
        <mxCell id="Ps-6_fYjzGiWJNzwA4xQ-55" value="" style="endArrow=none;html=1;rounded=0;exitX=0.5;exitY=0.05;exitDx=0;exitDy=0;exitPerimeter=0;entryX=0.5;entryY=0.98;entryDx=0;entryDy=0;entryPerimeter=0;fillColor=#6d8764;strokeColor=light-dark(#3A5431,#FFA9E0);" parent="1" source="Ps-6_fYjzGiWJNzwA4xQ-42" target="Ps-6_fYjzGiWJNzwA4xQ-49" edge="1">
          <mxGeometry width="50" height="50" relative="1" as="geometry">
            <mxPoint x="662.25" y="1127" as="sourcePoint" />
            <mxPoint x="721.25" y="1092" as="targetPoint" />
            <Array as="points" />
          </mxGeometry>
        </mxCell>
        <mxCell id="Ps-6_fYjzGiWJNzwA4xQ-56" value="" style="endArrow=none;html=1;rounded=0;exitX=0.5;exitY=0.05;exitDx=0;exitDy=0;exitPerimeter=0;entryX=0.5;entryY=0.98;entryDx=0;entryDy=0;entryPerimeter=0;fillColor=#6d8764;strokeColor=light-dark(#3A5431,#FFA9E0);" parent="1" source="Ps-6_fYjzGiWJNzwA4xQ-42" target="Ps-6_fYjzGiWJNzwA4xQ-51" edge="1">
          <mxGeometry width="50" height="50" relative="1" as="geometry">
            <mxPoint x="662.25" y="1127" as="sourcePoint" />
            <mxPoint x="725.25" y="1028" as="targetPoint" />
            <Array as="points" />
          </mxGeometry>
        </mxCell>
        <mxCell id="Ps-6_fYjzGiWJNzwA4xQ-57" value="" style="shape=mxgraph.cisco.servers.fileserver;sketch=0;html=1;pointerEvents=1;dashed=0;fillColor=#036897;strokeColor=#ffffff;strokeWidth=2;verticalLabelPosition=bottom;verticalAlign=top;align=center;outlineConnect=0;" parent="1" vertex="1">
          <mxGeometry x="938.5" y="1088" width="43" height="62" as="geometry" />
        </mxCell>
        <mxCell id="Ps-6_fYjzGiWJNzwA4xQ-60" value="" style="shape=mxgraph.cisco.storage.cloud;sketch=0;html=1;pointerEvents=1;dashed=0;fillColor=#036897;strokeColor=#ffffff;strokeWidth=2;verticalLabelPosition=bottom;verticalAlign=top;align=center;outlineConnect=0;" parent="1" vertex="1">
          <mxGeometry x="630" y="1174" width="104" height="59" as="geometry" />
        </mxCell>
        <mxCell id="Ps-6_fYjzGiWJNzwA4xQ-61" value="&lt;font style=&quot;font-size: 9px;&quot;&gt;10.0.2.0/24&lt;/font&gt;&lt;div&gt;&lt;font style=&quot;font-size: 9px;&quot;&gt;VLAN 101&lt;/font&gt;&lt;/div&gt;" style="text;html=1;align=center;verticalAlign=middle;resizable=0;points=[];autosize=1;strokeColor=none;fillColor=none;" parent="1" vertex="1">
          <mxGeometry x="648.5" y="1183.5" width="70" height="40" as="geometry" />
        </mxCell>
        <mxCell id="Ps-6_fYjzGiWJNzwA4xQ-62" value="" style="endArrow=none;html=1;rounded=0;exitX=0.98;exitY=0.5;exitDx=0;exitDy=0;exitPerimeter=0;entryX=0;entryY=0.5;entryDx=0;entryDy=0;entryPerimeter=0;fillColor=#6d8764;strokeColor=light-dark(#3A5431,#FFA9E0);" parent="1" source="Ps-6_fYjzGiWJNzwA4xQ-42" target="muuk2Ey48-B4BVq4eK8P-21" edge="1">
          <mxGeometry width="50" height="50" relative="1" as="geometry">
            <mxPoint x="800" y="1040.5" as="sourcePoint" />
            <mxPoint x="963" y="962.5" as="targetPoint" />
            <Array as="points" />
          </mxGeometry>
        </mxCell>
        <mxCell id="Ps-6_fYjzGiWJNzwA4xQ-63" value="" style="endArrow=none;html=1;rounded=0;exitX=0.98;exitY=0.5;exitDx=0;exitDy=0;exitPerimeter=0;entryX=0;entryY=0.5;entryDx=0;entryDy=0;entryPerimeter=0;fillColor=#6d8764;strokeColor=light-dark(#3A5431,#FFA9E0);" parent="1" source="Ps-6_fYjzGiWJNzwA4xQ-42" target="muuk2Ey48-B4BVq4eK8P-19" edge="1">
          <mxGeometry width="50" height="50" relative="1" as="geometry">
            <mxPoint x="691" y="1172.5" as="sourcePoint" />
            <mxPoint x="963" y="1012.5" as="targetPoint" />
            <Array as="points" />
          </mxGeometry>
        </mxCell>
        <mxCell id="Ps-6_fYjzGiWJNzwA4xQ-64" value="" style="endArrow=none;html=1;rounded=0;exitX=0.98;exitY=0.5;exitDx=0;exitDy=0;exitPerimeter=0;entryX=0;entryY=0.5;entryDx=0;entryDy=0;entryPerimeter=0;fillColor=#6d8764;strokeColor=light-dark(#3A5431,#FFA9E0);" parent="1" source="Ps-6_fYjzGiWJNzwA4xQ-42" target="muuk2Ey48-B4BVq4eK8P-53" edge="1">
          <mxGeometry width="50" height="50" relative="1" as="geometry">
            <mxPoint x="633.75" y="1135.5" as="sourcePoint" />
            <mxPoint x="903.75" y="1057.5" as="targetPoint" />
            <Array as="points" />
          </mxGeometry>
        </mxCell>
        <mxCell id="Ps-6_fYjzGiWJNzwA4xQ-65" value="" style="endArrow=none;html=1;rounded=0;exitX=0.98;exitY=0.5;exitDx=0;exitDy=0;exitPerimeter=0;entryX=0;entryY=0.5;entryDx=0;entryDy=0;entryPerimeter=0;fillColor=#6d8764;strokeColor=light-dark(#3A5431,#FFA9E0);" parent="1" source="Ps-6_fYjzGiWJNzwA4xQ-42" target="muuk2Ey48-B4BVq4eK8P-52" edge="1">
          <mxGeometry width="50" height="50" relative="1" as="geometry">
            <mxPoint x="638.75" y="1173.5" as="sourcePoint" />
            <mxPoint x="908.75" y="1095.5" as="targetPoint" />
            <Array as="points" />
          </mxGeometry>
        </mxCell>
        <mxCell id="Ps-6_fYjzGiWJNzwA4xQ-66" value="" style="endArrow=none;html=1;rounded=0;exitX=0.98;exitY=0.5;exitDx=0;exitDy=0;exitPerimeter=0;entryX=0;entryY=0.5;entryDx=0;entryDy=0;entryPerimeter=0;fillColor=#6d8764;strokeColor=light-dark(#3A5431,#FFA9E0);" parent="1" source="Ps-6_fYjzGiWJNzwA4xQ-42" target="Ps-6_fYjzGiWJNzwA4xQ-57" edge="1">
          <mxGeometry width="50" height="50" relative="1" as="geometry">
            <mxPoint x="800" y="1180.5" as="sourcePoint" />
            <mxPoint x="1070" y="1102.5" as="targetPoint" />
            <Array as="points" />
          </mxGeometry>
        </mxCell>
        <mxCell id="Ps-6_fYjzGiWJNzwA4xQ-67" value="" style="endArrow=none;html=1;rounded=0;exitX=0.98;exitY=0.5;exitDx=0;exitDy=0;exitPerimeter=0;entryX=0;entryY=0.5;entryDx=0;entryDy=0;entryPerimeter=0;fillColor=#6d8764;strokeColor=light-dark(#3A5431,#FFA9E0);" parent="1" source="Ps-6_fYjzGiWJNzwA4xQ-42" target="muuk2Ey48-B4BVq4eK8P-14" edge="1">
          <mxGeometry width="50" height="50" relative="1" as="geometry">
            <mxPoint x="850" y="1260.5" as="sourcePoint" />
            <mxPoint x="1120" y="1182.5" as="targetPoint" />
            <Array as="points" />
          </mxGeometry>
        </mxCell>
        <mxCell id="Ps-6_fYjzGiWJNzwA4xQ-68" value="" style="endArrow=none;html=1;rounded=0;exitX=0.98;exitY=0.5;exitDx=0;exitDy=0;exitPerimeter=0;entryX=0;entryY=0.5;entryDx=0;entryDy=0;entryPerimeter=0;fillColor=#6d8764;strokeColor=light-dark(#3A5431,#FFA9E0);" parent="1" source="Ps-6_fYjzGiWJNzwA4xQ-42" target="muuk2Ey48-B4BVq4eK8P-12" edge="1">
          <mxGeometry width="50" height="50" relative="1" as="geometry">
            <mxPoint x="900" y="1370.5" as="sourcePoint" />
            <mxPoint x="1170" y="1292.5" as="targetPoint" />
            <Array as="points" />
          </mxGeometry>
        </mxCell>
        <mxCell id="Ps-6_fYjzGiWJNzwA4xQ-69" value="&lt;font style=&quot;font-size: 9px;&quot;&gt;.1&lt;/font&gt;" style="text;html=1;align=center;verticalAlign=middle;resizable=0;points=[];autosize=1;strokeColor=none;fillColor=none;" parent="1" vertex="1">
          <mxGeometry x="309" y="1054.5" width="30" height="30" as="geometry" />
        </mxCell>
        <mxCell id="Ps-6_fYjzGiWJNzwA4xQ-70" value="&lt;font style=&quot;font-size: 9px;&quot;&gt;.1&lt;/font&gt;" style="text;html=1;align=center;verticalAlign=middle;resizable=0;points=[];autosize=1;strokeColor=none;fillColor=none;" parent="1" vertex="1">
          <mxGeometry x="366" y="1011" width="30" height="30" as="geometry" />
        </mxCell>
        <mxCell id="Ps-6_fYjzGiWJNzwA4xQ-79" value="" style="endArrow=none;html=1;rounded=0;fillColor=#6d8764;strokeColor=#3A5431;strokeWidth=2;exitX=0;exitY=0.5;exitDx=0;exitDy=0;exitPerimeter=0;entryX=0.98;entryY=0.5;entryDx=0;entryDy=0;entryPerimeter=0;" parent="1" source="muuk2Ey48-B4BVq4eK8P-53" target="Ps-6_fYjzGiWJNzwA4xQ-60" edge="1">
          <mxGeometry width="50" height="50" relative="1" as="geometry">
            <mxPoint x="790" y="1180.5" as="sourcePoint" />
            <mxPoint x="700" y="1180.5" as="targetPoint" />
          </mxGeometry>
        </mxCell>
        <mxCell id="Ps-6_fYjzGiWJNzwA4xQ-81" value="" style="endArrow=none;html=1;rounded=0;fillColor=#6d8764;strokeColor=#3A5431;strokeWidth=2;exitX=0;exitY=0.5;exitDx=0;exitDy=0;exitPerimeter=0;entryX=0.98;entryY=0.5;entryDx=0;entryDy=0;entryPerimeter=0;" parent="1" source="muuk2Ey48-B4BVq4eK8P-52" target="Ps-6_fYjzGiWJNzwA4xQ-60" edge="1">
          <mxGeometry width="50" height="50" relative="1" as="geometry">
            <mxPoint x="750" y="1150.5" as="sourcePoint" />
            <mxPoint x="480" y="1428.5" as="targetPoint" />
          </mxGeometry>
        </mxCell>
        <mxCell id="Ps-6_fYjzGiWJNzwA4xQ-82" value="" style="endArrow=none;html=1;rounded=0;fillColor=#6d8764;strokeColor=#3A5431;strokeWidth=2;exitX=0;exitY=0.5;exitDx=0;exitDy=0;exitPerimeter=0;entryX=0.98;entryY=0.5;entryDx=0;entryDy=0;entryPerimeter=0;" parent="1" source="Ps-6_fYjzGiWJNzwA4xQ-57" target="Ps-6_fYjzGiWJNzwA4xQ-60" edge="1">
          <mxGeometry width="50" height="50" relative="1" as="geometry">
            <mxPoint x="770" y="1160.5" as="sourcePoint" />
            <mxPoint x="503" y="1351.5" as="targetPoint" />
          </mxGeometry>
        </mxCell>
        <mxCell id="Ps-6_fYjzGiWJNzwA4xQ-83" value="" style="endArrow=none;html=1;rounded=0;fillColor=#6d8764;strokeColor=#3A5431;strokeWidth=2;exitX=0;exitY=0.5;exitDx=0;exitDy=0;exitPerimeter=0;entryX=0.98;entryY=0.5;entryDx=0;entryDy=0;entryPerimeter=0;" parent="1" source="muuk2Ey48-B4BVq4eK8P-14" target="Ps-6_fYjzGiWJNzwA4xQ-60" edge="1">
          <mxGeometry width="50" height="50" relative="1" as="geometry">
            <mxPoint x="790" y="1200.5" as="sourcePoint" />
            <mxPoint x="523" y="1391.5" as="targetPoint" />
          </mxGeometry>
        </mxCell>
        <mxCell id="Ps-6_fYjzGiWJNzwA4xQ-84" value="" style="endArrow=none;html=1;rounded=0;fillColor=#6d8764;strokeColor=#3A5431;strokeWidth=2;exitX=0;exitY=0.5;exitDx=0;exitDy=0;exitPerimeter=0;entryX=0.98;entryY=0.5;entryDx=0;entryDy=0;entryPerimeter=0;" parent="1" source="muuk2Ey48-B4BVq4eK8P-12" target="Ps-6_fYjzGiWJNzwA4xQ-60" edge="1">
          <mxGeometry width="50" height="50" relative="1" as="geometry">
            <mxPoint x="780" y="1190.5" as="sourcePoint" />
            <mxPoint x="513" y="1381.5" as="targetPoint" />
          </mxGeometry>
        </mxCell>
        <mxCell id="Ps-6_fYjzGiWJNzwA4xQ-85" value="" style="endArrow=none;html=1;rounded=0;fillColor=#6d8764;strokeColor=#3A5431;strokeWidth=2;exitX=0;exitY=0.5;exitDx=0;exitDy=0;exitPerimeter=0;entryX=0.98;entryY=0.5;entryDx=0;entryDy=0;entryPerimeter=0;" parent="1" source="muuk2Ey48-B4BVq4eK8P-21" target="Ps-6_fYjzGiWJNzwA4xQ-60" edge="1">
          <mxGeometry width="50" height="50" relative="1" as="geometry">
            <mxPoint x="820" y="1240.5" as="sourcePoint" />
            <mxPoint x="553" y="1431.5" as="targetPoint" />
          </mxGeometry>
        </mxCell>
        <mxCell id="Ps-6_fYjzGiWJNzwA4xQ-86" value="" style="endArrow=none;html=1;rounded=0;fillColor=#6d8764;strokeColor=#3A5431;strokeWidth=2;exitX=0;exitY=0.5;exitDx=0;exitDy=0;exitPerimeter=0;entryX=0.98;entryY=0.5;entryDx=0;entryDy=0;entryPerimeter=0;" parent="1" source="muuk2Ey48-B4BVq4eK8P-19" target="Ps-6_fYjzGiWJNzwA4xQ-60" edge="1">
          <mxGeometry width="50" height="50" relative="1" as="geometry">
            <mxPoint x="800" y="1220.5" as="sourcePoint" />
            <mxPoint x="533" y="1411.5" as="targetPoint" />
          </mxGeometry>
        </mxCell>
        <mxCell id="Ps-6_fYjzGiWJNzwA4xQ-87" value="" style="endArrow=none;html=1;rounded=0;exitX=0.98;exitY=0.5;exitDx=0;exitDy=0;exitPerimeter=0;entryX=0.04;entryY=0.5;entryDx=0;entryDy=0;entryPerimeter=0;" parent="1" source="muuk2Ey48-B4BVq4eK8P-59" target="Ps-6_fYjzGiWJNzwA4xQ-60" edge="1">
          <mxGeometry width="50" height="50" relative="1" as="geometry">
            <mxPoint x="490" y="1050" as="sourcePoint" />
            <mxPoint x="756" y="937" as="targetPoint" />
            <Array as="points" />
          </mxGeometry>
        </mxCell>
        <mxCell id="L5GtFVVW50Uuzim10pH1-5" value="" style="shape=mxgraph.cisco.storage.cloud;sketch=0;html=1;pointerEvents=1;dashed=0;fillColor=#036897;strokeColor=#ffffff;strokeWidth=2;verticalLabelPosition=bottom;verticalAlign=top;align=center;outlineConnect=0;" parent="1" vertex="1">
          <mxGeometry x="860" y="1388" width="104" height="59" as="geometry" />
        </mxCell>
        <mxCell id="L5GtFVVW50Uuzim10pH1-6" value="&lt;font style=&quot;font-size: 9px;&quot;&gt;172.16.0.4/30&lt;/font&gt;" style="text;html=1;align=center;verticalAlign=middle;resizable=0;points=[];autosize=1;strokeColor=none;fillColor=none;" parent="1" vertex="1">
          <mxGeometry x="873.5" y="1402.5" width="80" height="30" as="geometry" />
        </mxCell>
        <mxCell id="L5GtFVVW50Uuzim10pH1-7" value="" style="endArrow=none;html=1;rounded=0;entryX=1;entryY=0.5;entryDx=0;entryDy=0;entryPerimeter=0;exitX=0.04;exitY=0.5;exitDx=0;exitDy=0;exitPerimeter=0;" parent="1" source="L5GtFVVW50Uuzim10pH1-5" target="muuk2Ey48-B4BVq4eK8P-19" edge="1">
          <mxGeometry width="50" height="50" relative="1" as="geometry">
            <mxPoint x="900" y="1500.5" as="sourcePoint" />
            <mxPoint x="858.1600000000001" y="1430.5" as="targetPoint" />
            <Array as="points" />
          </mxGeometry>
        </mxCell>
        <mxCell id="L5GtFVVW50Uuzim10pH1-8" value="" style="endArrow=none;html=1;rounded=0;entryX=1;entryY=0.5;entryDx=0;entryDy=0;entryPerimeter=0;exitX=0.04;exitY=0.5;exitDx=0;exitDy=0;exitPerimeter=0;" parent="1" edge="1">
          <mxGeometry width="50" height="50" relative="1" as="geometry">
            <mxPoint x="991" y="1417.36" as="sourcePoint" />
            <mxPoint x="960" y="1417.36" as="targetPoint" />
            <Array as="points" />
          </mxGeometry>
        </mxCell>
      </root>
    </mxGraphModel>
  </diagram>
</mxfile>
